<svg width="145" height="25" viewBox="0 0 145 25" fill="none" xmlns="http://www.w3.org/2000/svg">
<mask id="path-1-outside-1_4722_2969" maskUnits="userSpaceOnUse" x="-0.357277" y="0" width="145" height="25" fill="black">
<rect fill="white" x="-0.357277" width="145" height="25"/>
<path d="M0.426723 13.22C0.426723 6.136 4.76672 1.152 10.7587 1.152C12.7747 1.152 14.3987 1.712 15.8547 2.944C16.2187 3.308 16.5267 3.14 16.5827 2.692L16.7787 1.376H17.5907L18.0107 9.608H17.1987C16.3867 5.408 14.5667 2.888 11.9627 2.888C8.77072 2.888 6.89472 6.724 6.89472 12.464C6.89472 18.204 8.77072 21.704 12.1027 21.704C15.1547 21.704 17.0307 18.708 17.6187 14.816H18.5707C18.0667 21.004 15.4347 24.448 10.1427 24.448C3.84272 24.448 0.426723 19.548 0.426723 13.22ZM27.6917 24.448C22.9597 24.448 20.1317 21.48 20.1317 16.496C20.1317 11.652 22.9597 8.376 27.6917 8.376C32.3957 8.376 35.2517 11.344 35.2517 16.3C35.2517 21.144 32.3957 24.448 27.6917 24.448ZM28.2237 22.684C29.6237 22.684 30.0437 20.584 30.0437 18.876C30.0437 15.068 29.2037 10.14 27.1597 10.14C25.7597 10.14 25.3397 12.24 25.3397 13.948C25.3397 17.756 26.1797 22.684 28.2237 22.684ZM35.7944 24V23.188C37.4744 23.188 37.8384 22.628 37.8384 20.696V13.528C37.8384 11.4 37.7824 10.896 36.0744 11.596L35.7384 10.784L42.0384 8.208L42.8784 8.852V11.848H42.9624C44.3344 9.832 45.9024 8.348 48.2544 8.348C50.2704 8.348 51.8384 9.636 51.8384 13.024V20.696C51.8384 22.628 52.1744 23.188 53.7704 23.188V24H45.2304V23.188C46.5184 23.188 46.7984 22.628 46.7984 20.696V13.332C46.7984 12.072 46.4064 11.428 45.5384 11.428C44.7544 11.428 43.8584 11.932 42.8784 13.472V20.696C42.8784 22.628 43.1584 23.188 44.4464 23.188V24H35.7944ZM63.4048 17.112H64.4688C64.4688 22.068 63.1808 24.448 59.7368 24.448C57.0208 24.448 55.4248 22.992 55.4248 18.708V10.504H53.6048V9.02C55.7328 8.88 58.0568 7.62 58.7008 4.596H60.3248V8.936H63.6008V10.504H60.4368V18.484C60.4368 20.528 60.9128 21.62 61.8088 21.62C62.9008 21.62 63.4048 20.08 63.4048 17.112ZM76.9918 17.84H77.8038C76.9918 22.46 74.8918 24.448 71.4758 24.448C67.7518 24.448 65.1198 21.788 65.1198 16.748C65.1198 12.408 67.5278 8.376 71.6998 8.376C76.1238 8.376 77.6918 11.932 77.6918 15.88H70.0758C70.2158 19.352 71.3078 21.116 73.6318 21.116C74.8358 21.116 76.2918 20.304 76.9918 17.84ZM71.6158 9.972C70.2998 9.972 70.0758 11.288 70.0478 14.312H72.9038C72.9038 11.372 72.8198 9.972 71.6158 9.972ZM78.4037 24V23.188C80.0837 23.188 80.4477 22.628 80.4477 20.696V13.528C80.4477 11.4 80.3917 10.896 78.6837 11.596L78.3477 10.784L84.6477 8.208L85.4877 8.852V11.848H85.5717C86.9437 9.832 88.5117 8.348 90.8637 8.348C92.8797 8.348 94.4477 9.636 94.4477 13.024V20.696C94.4477 22.628 94.7837 23.188 96.3797 23.188V24H87.8397V23.188C89.1277 23.188 89.4077 22.628 89.4077 20.696V13.332C89.4077 12.072 89.0157 11.428 88.1477 11.428C87.3637 11.428 86.4677 11.932 85.4877 13.472V20.696C85.4877 22.628 85.7677 23.188 87.0557 23.188V24H78.4037ZM113.095 21.508L113.403 22.32L107.187 24.476L106.179 23.72V21.312H106.095C105.255 23.16 103.743 24.448 101.699 24.448C98.9274 24.448 96.7434 21.956 96.7434 17.056C96.7434 11.204 99.5994 8.376 102.763 8.376C104.219 8.376 105.507 8.964 106.179 9.86V6.444C106.179 4.484 106.179 4.036 104.499 4.904L104.135 4.204L110.687 0.787998L111.219 1.32V19.492C111.219 21.592 111.331 22.124 113.095 21.508ZM104.135 21.396C104.807 21.396 105.507 20.976 106.179 19.688V15.264C106.179 13.08 105.619 10.588 104.163 10.588C102.903 10.588 102.063 12.24 102.063 16.16C102.063 19.38 102.623 21.396 104.135 21.396ZM125.343 17.84H126.155C125.343 22.46 123.243 24.448 119.827 24.448C116.103 24.448 113.471 21.788 113.471 16.748C113.471 12.408 115.879 8.376 120.051 8.376C124.475 8.376 126.043 11.932 126.043 15.88H118.427C118.567 19.352 119.659 21.116 121.983 21.116C123.187 21.116 124.643 20.304 125.343 17.84ZM119.967 9.972C118.651 9.972 118.427 11.288 118.399 14.312H121.255C121.255 11.372 121.171 9.972 119.967 9.972ZM143.817 21.508L144.125 22.32L137.909 24.476L136.901 23.72V21.312H136.817C135.977 23.16 134.465 24.448 132.421 24.448C129.649 24.448 127.465 21.956 127.465 17.056C127.465 11.204 130.321 8.376 133.485 8.376C134.941 8.376 136.229 8.964 136.901 9.86V6.444C136.901 4.484 136.901 4.036 135.221 4.904L134.857 4.204L141.409 0.787998L141.941 1.32V19.492C141.941 21.592 142.053 22.124 143.817 21.508ZM134.857 21.396C135.529 21.396 136.229 20.976 136.901 19.688V15.264C136.901 13.08 136.341 10.588 134.885 10.588C133.625 10.588 132.785 12.24 132.785 16.16C132.785 19.38 133.345 21.396 134.857 21.396Z"/>
</mask>
<path d="M0.426723 13.22C0.426723 6.136 4.76672 1.152 10.7587 1.152C12.7747 1.152 14.3987 1.712 15.8547 2.944C16.2187 3.308 16.5267 3.14 16.5827 2.692L16.7787 1.376H17.5907L18.0107 9.608H17.1987C16.3867 5.408 14.5667 2.888 11.9627 2.888C8.77072 2.888 6.89472 6.724 6.89472 12.464C6.89472 18.204 8.77072 21.704 12.1027 21.704C15.1547 21.704 17.0307 18.708 17.6187 14.816H18.5707C18.0667 21.004 15.4347 24.448 10.1427 24.448C3.84272 24.448 0.426723 19.548 0.426723 13.22ZM27.6917 24.448C22.9597 24.448 20.1317 21.48 20.1317 16.496C20.1317 11.652 22.9597 8.376 27.6917 8.376C32.3957 8.376 35.2517 11.344 35.2517 16.3C35.2517 21.144 32.3957 24.448 27.6917 24.448ZM28.2237 22.684C29.6237 22.684 30.0437 20.584 30.0437 18.876C30.0437 15.068 29.2037 10.14 27.1597 10.14C25.7597 10.14 25.3397 12.24 25.3397 13.948C25.3397 17.756 26.1797 22.684 28.2237 22.684ZM35.7944 24V23.188C37.4744 23.188 37.8384 22.628 37.8384 20.696V13.528C37.8384 11.4 37.7824 10.896 36.0744 11.596L35.7384 10.784L42.0384 8.208L42.8784 8.852V11.848H42.9624C44.3344 9.832 45.9024 8.348 48.2544 8.348C50.2704 8.348 51.8384 9.636 51.8384 13.024V20.696C51.8384 22.628 52.1744 23.188 53.7704 23.188V24H45.2304V23.188C46.5184 23.188 46.7984 22.628 46.7984 20.696V13.332C46.7984 12.072 46.4064 11.428 45.5384 11.428C44.7544 11.428 43.8584 11.932 42.8784 13.472V20.696C42.8784 22.628 43.1584 23.188 44.4464 23.188V24H35.7944ZM63.4048 17.112H64.4688C64.4688 22.068 63.1808 24.448 59.7368 24.448C57.0208 24.448 55.4248 22.992 55.4248 18.708V10.504H53.6048V9.02C55.7328 8.88 58.0568 7.62 58.7008 4.596H60.3248V8.936H63.6008V10.504H60.4368V18.484C60.4368 20.528 60.9128 21.62 61.8088 21.62C62.9008 21.62 63.4048 20.08 63.4048 17.112ZM76.9918 17.84H77.8038C76.9918 22.46 74.8918 24.448 71.4758 24.448C67.7518 24.448 65.1198 21.788 65.1198 16.748C65.1198 12.408 67.5278 8.376 71.6998 8.376C76.1238 8.376 77.6918 11.932 77.6918 15.88H70.0758C70.2158 19.352 71.3078 21.116 73.6318 21.116C74.8358 21.116 76.2918 20.304 76.9918 17.84ZM71.6158 9.972C70.2998 9.972 70.0758 11.288 70.0478 14.312H72.9038C72.9038 11.372 72.8198 9.972 71.6158 9.972ZM78.4037 24V23.188C80.0837 23.188 80.4477 22.628 80.4477 20.696V13.528C80.4477 11.4 80.3917 10.896 78.6837 11.596L78.3477 10.784L84.6477 8.208L85.4877 8.852V11.848H85.5717C86.9437 9.832 88.5117 8.348 90.8637 8.348C92.8797 8.348 94.4477 9.636 94.4477 13.024V20.696C94.4477 22.628 94.7837 23.188 96.3797 23.188V24H87.8397V23.188C89.1277 23.188 89.4077 22.628 89.4077 20.696V13.332C89.4077 12.072 89.0157 11.428 88.1477 11.428C87.3637 11.428 86.4677 11.932 85.4877 13.472V20.696C85.4877 22.628 85.7677 23.188 87.0557 23.188V24H78.4037ZM113.095 21.508L113.403 22.32L107.187 24.476L106.179 23.72V21.312H106.095C105.255 23.16 103.743 24.448 101.699 24.448C98.9274 24.448 96.7434 21.956 96.7434 17.056C96.7434 11.204 99.5994 8.376 102.763 8.376C104.219 8.376 105.507 8.964 106.179 9.86V6.444C106.179 4.484 106.179 4.036 104.499 4.904L104.135 4.204L110.687 0.787998L111.219 1.32V19.492C111.219 21.592 111.331 22.124 113.095 21.508ZM104.135 21.396C104.807 21.396 105.507 20.976 106.179 19.688V15.264C106.179 13.08 105.619 10.588 104.163 10.588C102.903 10.588 102.063 12.24 102.063 16.16C102.063 19.38 102.623 21.396 104.135 21.396ZM125.343 17.84H126.155C125.343 22.46 123.243 24.448 119.827 24.448C116.103 24.448 113.471 21.788 113.471 16.748C113.471 12.408 115.879 8.376 120.051 8.376C124.475 8.376 126.043 11.932 126.043 15.88H118.427C118.567 19.352 119.659 21.116 121.983 21.116C123.187 21.116 124.643 20.304 125.343 17.84ZM119.967 9.972C118.651 9.972 118.427 11.288 118.399 14.312H121.255C121.255 11.372 121.171 9.972 119.967 9.972ZM143.817 21.508L144.125 22.32L137.909 24.476L136.901 23.72V21.312H136.817C135.977 23.16 134.465 24.448 132.421 24.448C129.649 24.448 127.465 21.956 127.465 17.056C127.465 11.204 130.321 8.376 133.485 8.376C134.941 8.376 136.229 8.964 136.901 9.86V6.444C136.901 4.484 136.901 4.036 135.221 4.904L134.857 4.204L141.409 0.787998L141.941 1.32V19.492C141.941 21.592 142.053 22.124 143.817 21.508ZM134.857 21.396C135.529 21.396 136.229 20.976 136.901 19.688V15.264C136.901 13.08 136.341 10.588 134.885 10.588C133.625 10.588 132.785 12.24 132.785 16.16C132.785 19.38 133.345 21.396 134.857 21.396Z" fill="#E76431" fill-opacity="0.95"/>
<path d="M15.8547 2.944L16.0315 2.76722L16.0241 2.75987L16.0162 2.75315L15.8547 2.944ZM16.5827 2.692L16.3354 2.65516L16.3347 2.66099L16.5827 2.692ZM16.7787 1.376V1.126H16.5632L16.5315 1.33917L16.7787 1.376ZM17.5907 1.376L17.8404 1.36326L17.8283 1.126H17.5907V1.376ZM18.0107 9.608V9.858H18.2738L18.2604 9.59526L18.0107 9.608ZM17.1987 9.608L16.9533 9.65545L16.9924 9.858H17.1987V9.608ZM17.6187 14.816V14.566H17.4037L17.3715 14.7787L17.6187 14.816ZM18.5707 14.816L18.8199 14.8363L18.8419 14.566H18.5707V14.816ZM0.676723 13.22C0.676723 6.23748 4.93874 1.402 10.7587 1.402V0.901999C4.59471 0.901999 0.176723 6.03452 0.176723 13.22H0.676723ZM10.7587 1.402C12.7208 1.402 14.2862 1.94429 15.6932 3.13485L16.0162 2.75315C14.5112 1.47971 12.8286 0.901999 10.7587 0.901999V1.402ZM15.6779 3.12078C15.8881 3.33092 16.16 3.4629 16.4282 3.35418C16.6825 3.25105 16.7984 2.98222 16.8308 2.72301L16.3347 2.66099C16.3111 2.84978 16.2449 2.88894 16.2403 2.89081C16.24 2.89093 16.2292 2.89663 16.197 2.88532C16.1615 2.87282 16.1047 2.84046 16.0315 2.76722L15.6779 3.12078ZM16.83 2.72883L17.026 1.41283L16.5315 1.33917L16.3355 2.65517L16.83 2.72883ZM16.7787 1.626H17.5907V1.126H16.7787V1.626ZM17.341 1.38874L17.761 9.62074L18.2604 9.59526L17.8404 1.36326L17.341 1.38874ZM18.0107 9.358H17.1987V9.858H18.0107V9.358ZM17.4442 9.56055C17.0342 7.43984 16.3656 5.71836 15.4514 4.52127C14.5323 3.31761 13.358 2.638 11.9627 2.638V3.138C13.1715 3.138 14.2092 3.71839 15.054 4.82473C15.9039 5.93764 16.5513 7.57616 16.9533 9.65545L17.4442 9.56055ZM11.9627 2.638C10.2452 2.638 8.906 3.67742 8.00971 5.40856C7.11653 7.1337 6.64472 9.57198 6.64472 12.464H7.14472C7.14472 9.61602 7.61092 7.2663 8.45373 5.63844C9.29344 4.01658 10.4882 3.138 11.9627 3.138V2.638ZM6.64472 12.464C6.64472 15.3553 7.11626 17.7134 8.03073 19.358C8.95185 21.0146 10.3298 21.954 12.1027 21.954V21.454C10.5437 21.454 9.31759 20.6434 8.46772 19.115C7.61118 17.5746 7.14472 15.3127 7.14472 12.464H6.64472ZM12.1027 21.954C13.723 21.954 15.0238 21.1544 15.9849 19.8692C16.9415 18.5902 17.5681 16.8247 17.8659 14.8533L17.3715 14.7787C17.0814 16.6993 16.4759 18.3778 15.5845 19.5698C14.6976 20.7556 13.5345 21.454 12.1027 21.454V21.954ZM17.6187 15.066H18.5707V14.566H17.6187V15.066ZM18.3215 14.7957C18.0716 17.8639 17.2964 20.2126 15.9613 21.7911C14.6347 23.3595 12.7292 24.198 10.1427 24.198V24.698C12.8483 24.698 14.9047 23.8145 16.3431 22.1139C17.773 20.4234 18.5658 17.9561 18.8199 14.8363L18.3215 14.7957ZM10.1427 24.198C7.06409 24.198 4.70775 23.0039 3.11609 21.0491C1.51948 19.0883 0.676723 16.3417 0.676723 13.22H0.176723C0.176723 16.4263 1.04196 19.2937 2.72836 21.3649C4.4197 23.4421 6.92136 24.698 10.1427 24.698V24.198ZM27.6917 24.198C25.3791 24.198 23.5602 23.4741 22.3184 22.1687C21.075 20.8616 20.3817 18.9417 20.3817 16.496H19.8817C19.8817 19.0343 20.6025 21.0904 21.9561 22.5133C23.3112 23.9379 25.2723 24.698 27.6917 24.698V24.198ZM20.3817 16.496C20.3817 14.1216 21.0744 12.1566 22.322 10.7879C23.567 9.42206 25.3865 8.626 27.6917 8.626V8.126C25.265 8.126 23.3044 8.96794 21.9525 10.4511C20.6031 11.9314 19.8817 14.0264 19.8817 16.496H20.3817ZM27.6917 8.626C29.99 8.626 31.8094 9.34969 33.055 10.6523C34.302 11.9563 35.0017 13.8693 35.0017 16.3H35.5017C35.5017 13.7747 34.7734 11.7257 33.4164 10.3067C32.0581 8.88631 30.0975 8.126 27.6917 8.126V8.626ZM35.0017 16.3C35.0017 18.6738 34.3024 20.6462 33.0508 22.0223C31.8017 23.3956 29.982 24.198 27.6917 24.198V24.698C30.1055 24.698 32.0658 23.8484 33.4207 22.3587C34.7731 20.8718 35.5017 18.7702 35.5017 16.3H35.0017ZM28.2237 22.934C29.0827 22.934 29.6001 22.2804 29.8925 21.5091C30.1877 20.7305 30.2937 19.7444 30.2937 18.876H29.7937C29.7937 19.7156 29.6898 20.6335 29.425 21.3319C29.1574 22.0376 28.7648 22.434 28.2237 22.434V22.934ZM30.2937 18.876C30.2937 16.958 30.0826 14.7504 29.6094 13.0143C29.3733 12.1479 29.0673 11.3813 28.6773 10.8258C28.2872 10.2704 27.7853 9.89 27.1597 9.89V10.39C27.5562 10.39 27.9257 10.6256 28.2681 11.1132C28.6104 11.6007 28.8976 12.3041 29.127 13.1457C29.5849 14.8256 29.7937 16.986 29.7937 18.876H30.2937ZM27.1597 9.89C26.3008 9.89 25.7834 10.5436 25.491 11.3149C25.1958 12.0935 25.0897 13.0796 25.0897 13.948H25.5897C25.5897 13.1084 25.6937 12.1905 25.9585 11.4921C26.2261 10.7864 26.6187 10.39 27.1597 10.39V9.89ZM25.0897 13.948C25.0897 15.866 25.3009 18.0736 25.774 19.8097C26.0101 20.6761 26.3161 21.4427 26.7062 21.9982C27.0962 22.5536 27.5982 22.934 28.2237 22.934V22.434C27.8273 22.434 27.4577 22.1984 27.1154 21.7108C26.7731 21.2233 26.4858 20.5199 26.2564 19.6783C25.7986 17.9984 25.5897 15.838 25.5897 13.948H25.0897ZM35.7944 24H35.5444V24.25H35.7944V24ZM35.7944 23.188V22.938H35.5444V23.188H35.7944ZM36.0744 11.596L35.8434 11.6916L35.9387 11.9218L36.1692 11.8273L36.0744 11.596ZM35.7384 10.784L35.6438 10.5526L35.4114 10.6476L35.5074 10.8796L35.7384 10.784ZM42.0384 8.208L42.1905 8.0096L42.0767 7.92228L41.9438 7.9766L42.0384 8.208ZM42.8784 8.852H43.1284V8.72865L43.0305 8.6536L42.8784 8.852ZM42.8784 11.848H42.6284V12.098H42.8784V11.848ZM42.9624 11.848V12.098H43.0947L43.1691 11.9887L42.9624 11.848ZM53.7704 23.188H54.0204V22.938H53.7704V23.188ZM53.7704 24V24.25H54.0204V24H53.7704ZM45.2304 24H44.9804V24.25H45.2304V24ZM45.2304 23.188V22.938H44.9804V23.188H45.2304ZM42.8784 13.472L42.6675 13.3378L42.6284 13.3992V13.472H42.8784ZM44.4464 23.188H44.6964V22.938H44.4464V23.188ZM44.4464 24V24.25H44.6964V24H44.4464ZM36.0444 24V23.188H35.5444V24H36.0444ZM35.7944 23.438C36.6448 23.438 37.2646 23.3006 37.6427 22.8214C37.8271 22.5877 37.9364 22.2934 38.0011 21.9462C38.0656 21.5996 38.0884 21.1844 38.0884 20.696H37.5884C37.5884 21.1736 37.5657 21.5529 37.5095 21.8547C37.4535 22.1558 37.3668 22.3638 37.2502 22.5116C37.0263 22.7954 36.6241 22.938 35.7944 22.938V23.438ZM38.0884 20.696V13.528H37.5884V20.696H38.0884ZM38.0884 13.528C38.0884 12.9986 38.0851 12.5558 38.0519 12.2063C38.0195 11.8656 37.9554 11.5636 37.7972 11.3519C37.6182 11.1122 37.3561 11.0318 37.0524 11.054C36.7647 11.075 36.4096 11.1884 35.9796 11.3647L36.1692 11.8273C36.5932 11.6536 36.8857 11.5675 37.0889 11.5526C37.276 11.539 37.3482 11.5863 37.3967 11.6511C37.466 11.7439 37.5227 11.9232 37.5541 12.2536C37.5847 12.5752 37.5884 12.9934 37.5884 13.528H38.0884ZM36.3054 11.5004L35.9694 10.6884L35.5074 10.8796L35.8434 11.6916L36.3054 11.5004ZM35.8331 11.0154L42.1331 8.4394L41.9438 7.9766L35.6438 10.5526L35.8331 11.0154ZM41.8863 8.4064L42.7263 9.0504L43.0305 8.6536L42.1905 8.0096L41.8863 8.4064ZM42.6284 8.852V11.848H43.1284V8.852H42.6284ZM42.8784 12.098H42.9624V11.598H42.8784V12.098ZM43.1691 11.9887C44.5285 9.99113 46.0313 8.598 48.2544 8.598V8.098C45.7736 8.098 44.1403 9.67287 42.7558 11.7073L43.1691 11.9887ZM48.2544 8.598C49.2074 8.598 50.0271 8.90044 50.6133 9.57893C51.2041 10.2629 51.5884 11.3646 51.5884 13.024H52.0884C52.0884 11.2954 51.6888 10.0591 50.9916 9.25207C50.2897 8.43956 49.3175 8.098 48.2544 8.098V8.598ZM51.5884 13.024V20.696H52.0884V13.024H51.5884ZM51.5884 20.696C51.5884 21.1839 51.6095 21.598 51.6696 21.9433C51.7297 22.2888 51.8317 22.582 52.0053 22.8156C52.3647 23.2993 52.9591 23.438 53.7704 23.438V22.938C52.9858 22.938 52.6141 22.7967 52.4066 22.5174C52.2967 22.3695 52.2149 22.1605 52.1622 21.8576C52.1094 21.5545 52.0884 21.1741 52.0884 20.696H51.5884ZM53.5204 23.188V24H54.0204V23.188H53.5204ZM53.7704 23.75H45.2304V24.25H53.7704V23.75ZM45.4804 24V23.188H44.9804V24H45.4804ZM45.2304 23.438C45.9048 23.438 46.4117 23.2908 46.7113 22.796C46.8513 22.5647 46.9333 22.2764 46.982 21.9358C47.0309 21.5942 47.0484 21.1831 47.0484 20.696H46.5484C46.5484 21.1749 46.531 21.5583 46.4871 21.865C46.443 22.1729 46.3746 22.3868 46.2836 22.537C46.1212 22.8052 45.8441 22.938 45.2304 22.938V23.438ZM47.0484 20.696V13.332H46.5484V20.696H47.0484ZM47.0484 13.332C47.0484 12.6848 46.9494 12.1504 46.7037 11.7715C46.4449 11.3724 46.0451 11.178 45.5384 11.178V11.678C45.8998 11.678 46.1299 11.8056 46.2842 12.0435C46.4515 12.3016 46.5484 12.7192 46.5484 13.332H47.0484ZM45.5384 11.178C44.6285 11.178 43.6664 11.7682 42.6675 13.3378L43.0894 13.6062C44.0505 12.0958 44.8804 11.678 45.5384 11.678V11.178ZM42.6284 13.472V20.696H43.1284V13.472H42.6284ZM42.6284 20.696C42.6284 21.1831 42.646 21.5942 42.6948 21.9358C42.7435 22.2764 42.8256 22.5647 42.9656 22.796C43.2652 23.2908 43.7721 23.438 44.4464 23.438V22.938C43.8328 22.938 43.5557 22.8052 43.3933 22.537C43.3023 22.3868 43.2338 22.1729 43.1898 21.865C43.1459 21.5583 43.1284 21.1749 43.1284 20.696H42.6284ZM44.1964 23.188V24H44.6964V23.188H44.1964ZM44.4464 23.75H35.7944V24.25H44.4464V23.75ZM63.4048 17.112V16.862H63.1548V17.112H63.4048ZM64.4688 17.112H64.7188V16.862H64.4688V17.112ZM55.4248 10.504H55.6748V10.254H55.4248V10.504ZM53.6048 10.504H53.3548V10.754H53.6048V10.504ZM53.6048 9.02L53.5884 8.77054L53.3548 8.78591V9.02H53.6048ZM58.7008 4.596V4.346H58.4985L58.4563 4.54393L58.7008 4.596ZM60.3248 4.596H60.5748V4.346H60.3248V4.596ZM60.3248 8.936H60.0748V9.186H60.3248V8.936ZM63.6008 8.936H63.8508V8.686H63.6008V8.936ZM63.6008 10.504V10.754H63.8508V10.504H63.6008ZM60.4368 10.504V10.254H60.1868V10.504H60.4368ZM63.4048 17.362H64.4688V16.862H63.4048V17.362ZM64.2188 17.112C64.2188 19.5795 63.896 21.3541 63.1818 22.5068C62.484 23.6332 61.391 24.198 59.7368 24.198V24.698C61.5267 24.698 62.7997 24.0728 63.6069 22.7702C64.3977 21.4939 64.7188 19.6005 64.7188 17.112H64.2188ZM59.7368 24.198C58.4234 24.198 57.4302 23.8476 56.7556 23.0259C56.0713 22.1925 55.6748 20.8277 55.6748 18.708H55.1748C55.1748 20.8723 55.5764 22.3775 56.3691 23.3431C57.1715 24.3204 58.3343 24.698 59.7368 24.698V24.198ZM55.6748 18.708V10.504H55.1748V18.708H55.6748ZM55.4248 10.254H53.6048V10.754H55.4248V10.254ZM53.8548 10.504V9.02H53.3548V10.504H53.8548ZM53.6213 9.26946C55.8351 9.12382 58.2731 7.8049 58.9454 4.64807L58.4563 4.54393C57.8406 7.43509 55.6306 8.63618 53.5884 8.77054L53.6213 9.26946ZM58.7008 4.846H60.3248V4.346H58.7008V4.846ZM60.0748 4.596V8.936H60.5748V4.596H60.0748ZM60.3248 9.186H63.6008V8.686H60.3248V9.186ZM63.3508 8.936V10.504H63.8508V8.936H63.3508ZM63.6008 10.254H60.4368V10.754H63.6008V10.254ZM60.1868 10.504V18.484H60.6868V10.504H60.1868ZM60.1868 18.484C60.1868 19.5185 60.3063 20.3433 60.5578 20.9186C60.8137 21.5041 61.229 21.87 61.8088 21.87V21.37C61.4927 21.37 61.222 21.1899 61.0159 20.7184C60.8054 20.2367 60.6868 19.4935 60.6868 18.484H60.1868ZM61.8088 21.87C62.1477 21.87 62.4451 21.7479 62.6911 21.5143C62.9311 21.2862 63.1138 20.9605 63.2525 20.561C63.5291 19.7643 63.6548 18.6031 63.6548 17.112H63.1548C63.1548 18.5889 63.0286 19.6816 62.7802 20.397C62.6564 20.7535 62.5083 20.9983 62.3467 21.1517C62.1911 21.2996 62.016 21.37 61.8088 21.37V21.87ZM76.9918 17.84V17.59H76.803L76.7514 17.7717L76.9918 17.84ZM77.8038 17.84L78.0501 17.8833L78.1016 17.59H77.8038V17.84ZM77.6918 15.88V16.13H77.9418V15.88H77.6918ZM70.0758 15.88V15.63H69.8156L69.826 15.8901L70.0758 15.88ZM70.0478 14.312L69.7979 14.3097L69.7955 14.562H70.0478V14.312ZM72.9038 14.312V14.562H73.1538V14.312H72.9038ZM76.9918 18.09H77.8038V17.59H76.9918V18.09ZM77.5576 17.7967C77.1561 20.0811 76.442 21.6773 75.4378 22.7015C74.4408 23.7184 73.1315 24.198 71.4758 24.198V24.698C73.2362 24.698 74.6849 24.1836 75.7949 23.0515C76.8977 21.9267 77.6396 20.2189 78.0501 17.8833L77.5576 17.7967ZM71.4758 24.198C69.6767 24.198 68.1603 23.5576 67.0902 22.3242C66.0168 21.087 65.3698 19.2264 65.3698 16.748H64.8698C64.8698 19.3096 65.5389 21.299 66.7125 22.6518C67.8894 24.0084 69.551 24.698 71.4758 24.698V24.198ZM65.3698 16.748C65.3698 14.6207 65.9606 12.5816 67.0478 11.0812C68.131 9.58623 69.7049 8.626 71.6998 8.626V8.126C69.5228 8.126 67.8066 9.18177 66.6429 10.7878C65.4831 12.3884 64.8698 14.5353 64.8698 16.748H65.3698ZM71.6998 8.626C73.8335 8.626 75.2524 9.47765 76.1485 10.7886C77.0542 12.1136 77.4418 13.9329 77.4418 15.88H77.9418C77.9418 13.8791 77.5455 11.9464 76.5612 10.5064C75.5673 9.05235 73.9902 8.126 71.6998 8.126V8.626ZM77.6918 15.63H70.0758V16.13H77.6918V15.63ZM69.826 15.8901C69.8967 17.6422 70.2078 19.0063 70.8266 19.9383C71.4583 20.8897 72.3943 21.366 73.6318 21.366V20.866C72.5453 20.866 71.7734 20.4603 71.2431 19.6617C70.6999 18.8437 70.395 17.5898 70.3256 15.8699L69.826 15.8901ZM73.6318 21.366C74.9704 21.366 76.5085 20.4561 77.2323 17.9083L76.7514 17.7717C76.0752 20.1519 74.7013 20.866 73.6318 20.866V21.366ZM71.6158 9.722C71.243 9.722 70.9215 9.81633 70.6604 10.0322C70.4035 10.2444 70.2308 10.5529 70.1105 10.9325C69.8733 11.6813 69.8118 12.8046 69.7979 14.3097L70.2978 14.3143C70.3119 12.7954 70.3764 11.7487 70.5872 11.0835C70.6909 10.7561 70.8227 10.5466 70.9788 10.4176C71.1306 10.2922 71.3307 10.222 71.6158 10.222V9.722ZM70.0478 14.562H72.9038V14.062H70.0478V14.562ZM73.1538 14.312C73.1538 12.852 73.1343 11.7337 72.9545 10.9814C72.8639 10.6023 72.7258 10.2839 72.5018 10.0599C72.2694 9.82745 71.9703 9.722 71.6158 9.722V10.222C71.8634 10.222 72.0263 10.2915 72.1483 10.4135C72.2786 10.5438 72.3873 10.7592 72.4682 11.0976C72.6314 11.7803 72.6538 12.832 72.6538 14.312H73.1538ZM78.4037 24H78.1537V24.25H78.4037V24ZM78.4037 23.188V22.938H78.1537V23.188H78.4037ZM78.6837 11.596L78.4527 11.6916L78.5479 11.9218L78.7785 11.8273L78.6837 11.596ZM78.3477 10.784L78.253 10.5526L78.0207 10.6476L78.1167 10.8796L78.3477 10.784ZM84.6477 8.208L84.7998 8.0096L84.6859 7.92228L84.553 7.9766L84.6477 8.208ZM85.4877 8.852H85.7377V8.72865L85.6398 8.6536L85.4877 8.852ZM85.4877 11.848H85.2377V12.098H85.4877V11.848ZM85.5717 11.848V12.098H85.7039L85.7783 11.9887L85.5717 11.848ZM96.3797 23.188H96.6297V22.938H96.3797V23.188ZM96.3797 24V24.25H96.6297V24H96.3797ZM87.8397 24H87.5897V24.25H87.8397V24ZM87.8397 23.188V22.938H87.5897V23.188H87.8397ZM85.4877 13.472L85.2767 13.3378L85.2377 13.3992V13.472H85.4877ZM87.0557 23.188H87.3057V22.938H87.0557V23.188ZM87.0557 24V24.25H87.3057V24H87.0557ZM78.6537 24V23.188H78.1537V24H78.6537ZM78.4037 23.438C79.254 23.438 79.8738 23.3006 80.2519 22.8214C80.4363 22.5877 80.5456 22.2934 80.6103 21.9462C80.6749 21.5996 80.6977 21.1844 80.6977 20.696H80.1977C80.1977 21.1736 80.175 21.5529 80.1188 21.8547C80.0627 22.1558 79.976 22.3638 79.8594 22.5116C79.6355 22.7954 79.2333 22.938 78.4037 22.938V23.438ZM80.6977 20.696V13.528H80.1977V20.696H80.6977ZM80.6977 13.528C80.6977 12.9986 80.6944 12.5558 80.6611 12.2063C80.6287 11.8656 80.5646 11.5636 80.4064 11.3519C80.2274 11.1122 79.9653 11.0318 79.6616 11.054C79.3739 11.075 79.0189 11.1884 78.5889 11.3647L78.7785 11.8273C79.2025 11.6536 79.4949 11.5675 79.6981 11.5526C79.8853 11.539 79.9574 11.5863 80.0059 11.6511C80.0752 11.7439 80.1319 11.9232 80.1633 12.2536C80.194 12.5752 80.1977 12.9934 80.1977 13.528H80.6977ZM78.9147 11.5004L78.5787 10.6884L78.1167 10.8796L78.4527 11.6916L78.9147 11.5004ZM78.4423 11.0154L84.7423 8.4394L84.553 7.9766L78.253 10.5526L78.4423 11.0154ZM84.4956 8.4064L85.3356 9.0504L85.6398 8.6536L84.7998 8.0096L84.4956 8.4064ZM85.2377 8.852V11.848H85.7377V8.852H85.2377ZM85.4877 12.098H85.5717V11.598H85.4877V12.098ZM85.7783 11.9887C87.1378 9.99113 88.6405 8.598 90.8637 8.598V8.098C88.3828 8.098 86.7496 9.67287 85.365 11.7073L85.7783 11.9887ZM90.8637 8.598C91.8166 8.598 92.6364 8.90044 93.2225 9.57893C93.8133 10.2629 94.1977 11.3646 94.1977 13.024H94.6977C94.6977 11.2954 94.298 10.0591 93.6008 9.25207C92.899 8.43956 91.9267 8.098 90.8637 8.098V8.598ZM94.1977 13.024V20.696H94.6977V13.024H94.1977ZM94.1977 20.696C94.1977 21.1839 94.2187 21.598 94.2788 21.9433C94.3389 22.2888 94.4409 22.582 94.6145 22.8156C94.974 23.2993 95.5683 23.438 96.3797 23.438V22.938C95.595 22.938 95.2234 22.7967 95.0158 22.5174C94.9059 22.3695 94.8241 22.1605 94.7714 21.8576C94.7186 21.5545 94.6977 21.1741 94.6977 20.696H94.1977ZM96.1297 23.188V24H96.6297V23.188H96.1297ZM96.3797 23.75H87.8397V24.25H96.3797V23.75ZM88.0897 24V23.188H87.5897V24H88.0897ZM87.8397 23.438C88.514 23.438 89.0209 23.2908 89.3205 22.796C89.4605 22.5647 89.5426 22.2764 89.5913 21.9358C89.6401 21.5942 89.6577 21.1831 89.6577 20.696H89.1577C89.1577 21.1749 89.1402 21.5583 89.0963 21.865C89.0523 22.1729 88.9838 22.3868 88.8928 22.537C88.7304 22.8052 88.4533 22.938 87.8397 22.938V23.438ZM89.6577 20.696V13.332H89.1577V20.696H89.6577ZM89.6577 13.332C89.6577 12.6848 89.5586 12.1504 89.3129 11.7715C89.0542 11.3724 88.6544 11.178 88.1477 11.178V11.678C88.509 11.678 88.7392 11.8056 88.8934 12.0435C89.0607 12.3016 89.1577 12.7192 89.1577 13.332H89.6577ZM88.1477 11.178C87.2377 11.178 86.2756 11.7682 85.2767 13.3378L85.6986 13.6062C86.6597 12.0958 87.4896 11.678 88.1477 11.678V11.178ZM85.2377 13.472V20.696H85.7377V13.472H85.2377ZM85.2377 20.696C85.2377 21.1831 85.2552 21.5942 85.3041 21.9358C85.3528 22.2764 85.4348 22.5647 85.5748 22.796C85.8744 23.2908 86.3813 23.438 87.0557 23.438V22.938C86.442 22.938 86.1649 22.8052 86.0025 22.537C85.9115 22.3868 85.8431 22.1729 85.799 21.865C85.7551 21.5583 85.7377 21.1749 85.7377 20.696H85.2377ZM86.8057 23.188V24H87.3057V23.188H86.8057ZM87.0557 23.75H78.4037V24.25H87.0557V23.75ZM113.095 21.508L113.329 21.4193L113.243 21.1917L113.013 21.272L113.095 21.508ZM113.403 22.32L113.485 22.5562L113.728 22.4719L113.637 22.2313L113.403 22.32ZM107.187 24.476L107.037 24.676L107.144 24.7558L107.269 24.7122L107.187 24.476ZM106.179 23.72H105.929V23.845L106.029 23.92L106.179 23.72ZM106.179 21.312H106.429V21.062H106.179V21.312ZM106.095 21.312V21.062H105.934L105.868 21.2085L106.095 21.312ZM106.179 9.86L105.979 10.01L106.429 10.61V9.86H106.179ZM104.499 4.904L104.278 5.01934L104.393 5.24056L104.614 5.12611L104.499 4.904ZM104.135 4.204L104.02 3.98232L103.798 4.09777L103.914 4.31934L104.135 4.204ZM110.687 0.787998L110.864 0.611222L110.735 0.481518L110.572 0.566318L110.687 0.787998ZM111.219 1.32H111.469V1.21644L111.396 1.14322L111.219 1.32ZM106.179 19.688L106.401 19.8036L106.429 19.7493V19.688H106.179ZM112.862 21.5967L113.17 22.4087L113.637 22.2313L113.329 21.4193L112.862 21.5967ZM113.322 22.0838L107.106 24.2398L107.269 24.7122L113.485 22.5562L113.322 22.0838ZM107.337 24.276L106.329 23.52L106.029 23.92L107.037 24.676L107.337 24.276ZM106.429 23.72V21.312H105.929V23.72H106.429ZM106.179 21.062H106.095V21.562H106.179V21.062ZM105.868 21.2085C105.056 22.9942 103.619 24.198 101.699 24.198V24.698C103.868 24.698 105.455 23.3258 106.323 21.4155L105.868 21.2085ZM101.699 24.198C100.397 24.198 99.2319 23.6161 98.3846 22.4431C97.5324 21.2633 96.9934 19.4724 96.9934 17.056H96.4934C96.4934 19.5396 97.0465 21.4447 97.9793 22.7359C98.917 24.0339 100.23 24.698 101.699 24.698V24.198ZM96.9934 17.056C96.9934 14.1684 97.6981 12.0573 98.7649 10.6742C99.8287 9.29498 101.262 8.626 102.763 8.626V8.126C101.101 8.126 99.5242 8.87102 98.369 10.3688C97.2167 11.8627 96.4934 14.0916 96.4934 17.056H96.9934ZM102.763 8.626C104.16 8.626 105.365 9.19077 105.979 10.01L106.379 9.71C105.65 8.73723 104.279 8.126 102.763 8.126V8.626ZM106.429 9.86V6.444H105.929V9.86H106.429ZM106.429 6.444C106.429 5.95838 106.43 5.55025 106.402 5.23293C106.376 4.92881 106.321 4.64244 106.16 4.45213C105.971 4.22778 105.699 4.19956 105.419 4.25811C105.147 4.31512 104.806 4.46434 104.385 4.68189L104.614 5.12611C105.033 4.90966 105.322 4.78937 105.522 4.74751C105.715 4.70719 105.758 4.75071 105.778 4.77486C105.828 4.83306 105.878 4.97194 105.904 5.27594C105.929 5.56675 105.929 5.94962 105.929 6.444H106.429ZM104.721 4.78866L104.357 4.08866L103.914 4.31934L104.278 5.01934L104.721 4.78866ZM104.251 4.42568L110.803 1.00968L110.572 0.566318L104.02 3.98232L104.251 4.42568ZM110.511 0.964775L111.043 1.49677L111.396 1.14322L110.864 0.611222L110.511 0.964775ZM110.969 1.32V19.492H111.469V1.32H110.969ZM110.969 19.492C110.969 20.0157 110.976 20.4562 111.016 20.8077C111.055 21.1528 111.13 21.4559 111.299 21.6723C111.484 21.9092 111.748 22.0029 112.062 21.9982C112.363 21.9936 112.732 21.8997 113.178 21.744L113.013 21.272C112.577 21.4243 112.271 21.4949 112.054 21.4982C111.852 21.5013 111.757 21.4463 111.693 21.3647C111.613 21.2626 111.55 21.0775 111.513 20.7514C111.477 20.4318 111.469 20.0183 111.469 19.492H110.969ZM104.135 21.646C104.941 21.646 105.709 21.1309 106.401 19.8036L105.958 19.5724C105.306 20.8211 104.674 21.146 104.135 21.146V21.646ZM106.429 19.688V15.264H105.929V19.688H106.429ZM106.429 15.264C106.429 14.1559 106.288 12.9554 105.953 12.0224C105.625 11.1106 105.064 10.338 104.163 10.338V10.838C104.719 10.838 105.166 11.3114 105.482 12.1915C105.791 13.0506 105.929 14.1881 105.929 15.264H106.429ZM104.163 10.338C103.392 10.338 102.797 10.8564 102.409 11.8098C102.024 12.7575 101.813 14.1889 101.813 16.16H102.313C102.313 14.2111 102.523 12.8565 102.872 11.9982C103.22 11.1456 103.675 10.838 104.163 10.838V10.338ZM101.813 16.16C101.813 17.7771 101.953 19.122 102.297 20.0708C102.47 20.5469 102.701 20.9403 103.006 21.2163C103.318 21.4972 103.696 21.646 104.135 21.646V21.146C103.819 21.146 103.56 21.0428 103.341 20.8451C103.117 20.6425 102.924 20.3306 102.767 19.9002C102.454 19.036 102.313 17.7629 102.313 16.16H101.813ZM125.343 17.84V17.59H125.154L125.103 17.7717L125.343 17.84ZM126.155 17.84L126.401 17.8833L126.453 17.59H126.155V17.84ZM126.043 15.88V16.13H126.293V15.88H126.043ZM118.427 15.88V15.63H118.167L118.177 15.8901L118.427 15.88ZM118.399 14.312L118.149 14.3097L118.147 14.562H118.399V14.312ZM121.255 14.312V14.562H121.505V14.312H121.255ZM125.343 18.09H126.155V17.59H125.343V18.09ZM125.909 17.7967C125.508 20.0811 124.793 21.6773 123.789 22.7015C122.792 23.7184 121.483 24.198 119.827 24.198V24.698C121.588 24.698 123.036 24.1836 124.146 23.0515C125.249 21.9267 125.991 20.2189 126.401 17.8833L125.909 17.7967ZM119.827 24.198C118.028 24.198 116.512 23.5576 115.442 22.3242C114.368 21.087 113.721 19.2264 113.721 16.748H113.221C113.221 19.3096 113.89 21.299 115.064 22.6518C116.241 24.0084 117.902 24.698 119.827 24.698V24.198ZM113.721 16.748C113.721 14.6207 114.312 12.5816 115.399 11.0812C116.482 9.58623 118.056 8.626 120.051 8.626V8.126C117.874 8.126 116.158 9.18177 114.994 10.7878C113.835 12.3884 113.221 14.5353 113.221 16.748H113.721ZM120.051 8.626C122.185 8.626 123.604 9.47765 124.5 10.7886C125.406 12.1136 125.793 13.9329 125.793 15.88H126.293C126.293 13.8791 125.897 11.9464 124.913 10.5064C123.919 9.05235 122.342 8.126 120.051 8.126V8.626ZM126.043 15.63H118.427V16.13H126.043V15.63ZM118.177 15.8901C118.248 17.6422 118.559 19.0063 119.178 19.9383C119.81 20.8897 120.746 21.366 121.983 21.366V20.866C120.897 20.866 120.125 20.4603 119.595 19.6617C119.051 18.8437 118.746 17.5898 118.677 15.8699L118.177 15.8901ZM121.983 21.366C123.322 21.366 124.86 20.4561 125.584 17.9083L125.103 17.7717C124.427 20.1519 123.053 20.866 121.983 20.866V21.366ZM119.967 9.722C119.594 9.722 119.273 9.81633 119.012 10.0322C118.755 10.2444 118.582 10.5529 118.462 10.9325C118.225 11.6813 118.163 12.8046 118.149 14.3097L118.649 14.3143C118.663 12.7954 118.728 11.7487 118.939 11.0835C119.042 10.7561 119.174 10.5466 119.33 10.4176C119.482 10.2922 119.682 10.222 119.967 10.222V9.722ZM118.399 14.562H121.255V14.062H118.399V14.562ZM121.505 14.312C121.505 12.852 121.486 11.7337 121.306 10.9814C121.215 10.6023 121.077 10.2839 120.853 10.0599C120.621 9.82745 120.322 9.722 119.967 9.722V10.222C120.215 10.222 120.378 10.2915 120.5 10.4135C120.63 10.5438 120.739 10.7592 120.82 11.0976C120.983 11.7803 121.005 12.832 121.005 14.312H121.505ZM143.817 21.508L144.05 21.4193L143.964 21.1917L143.734 21.272L143.817 21.508ZM144.125 22.32L144.207 22.5562L144.45 22.4719L144.358 22.2313L144.125 22.32ZM137.909 24.476L137.759 24.676L137.865 24.7558L137.991 24.7122L137.909 24.476ZM136.901 23.72H136.651V23.845L136.751 23.92L136.901 23.72ZM136.901 21.312H137.151V21.062H136.901V21.312ZM136.817 21.312V21.062H136.656L136.589 21.2085L136.817 21.312ZM136.901 9.86L136.701 10.01L137.151 10.61V9.86H136.901ZM135.221 4.904L134.999 5.01934L135.114 5.24056L135.335 5.12611L135.221 4.904ZM134.857 4.204L134.741 3.98232L134.52 4.09777L134.635 4.31934L134.857 4.204ZM141.409 0.787998L141.585 0.611222L141.456 0.481518L141.293 0.566318L141.409 0.787998ZM141.941 1.32H142.191V1.21644L142.117 1.14322L141.941 1.32ZM136.901 19.688L137.122 19.8036L137.151 19.7493V19.688H136.901ZM143.583 21.5967L143.891 22.4087L144.358 22.2313L144.05 21.4193L143.583 21.5967ZM144.043 22.0838L137.827 24.2398L137.991 24.7122L144.207 22.5562L144.043 22.0838ZM138.059 24.276L137.051 23.52L136.751 23.92L137.759 24.676L138.059 24.276ZM137.151 23.72V21.312H136.651V23.72H137.151ZM136.901 21.062H136.817V21.562H136.901V21.062ZM136.589 21.2085C135.777 22.9942 134.34 24.198 132.421 24.198V24.698C134.589 24.698 136.176 23.3258 137.044 21.4155L136.589 21.2085ZM132.421 24.198C131.118 24.198 129.953 23.6161 129.106 22.4431C128.254 21.2633 127.715 19.4724 127.715 17.056H127.215C127.215 19.5396 127.768 21.4447 128.701 22.7359C129.638 24.0339 130.951 24.698 132.421 24.698V24.198ZM127.715 17.056C127.715 14.1684 128.419 12.0573 129.486 10.6742C130.55 9.29498 131.983 8.626 133.485 8.626V8.126C131.823 8.126 130.245 8.87102 129.09 10.3688C127.938 11.8627 127.215 14.0916 127.215 17.056H127.715ZM133.485 8.626C134.881 8.626 136.086 9.19077 136.701 10.01L137.101 9.71C136.371 8.73723 135 8.126 133.485 8.126V8.626ZM137.151 9.86V6.444H136.651V9.86H137.151ZM137.151 6.444C137.151 5.95838 137.151 5.55025 137.124 5.23293C137.097 4.92881 137.042 4.64244 136.882 4.45213C136.692 4.22778 136.421 4.19956 136.141 4.25811C135.868 4.31512 135.527 4.46434 135.106 4.68189L135.335 5.12611C135.754 4.90966 136.043 4.78937 136.243 4.74751C136.436 4.70719 136.479 4.75071 136.5 4.77486C136.549 4.83306 136.599 4.97194 136.625 5.27594C136.65 5.56675 136.651 5.94962 136.651 6.444H137.151ZM135.442 4.78866L135.078 4.08866L134.635 4.31934L134.999 5.01934L135.442 4.78866ZM134.972 4.42568L141.524 1.00968L141.293 0.566318L134.741 3.98232L134.972 4.42568ZM141.232 0.964775L141.764 1.49677L142.117 1.14322L141.585 0.611222L141.232 0.964775ZM141.691 1.32V19.492H142.191V1.32H141.691ZM141.691 19.492C141.691 20.0157 141.697 20.4562 141.737 20.8077C141.776 21.1528 141.851 21.4559 142.02 21.6723C142.205 21.9092 142.469 22.0029 142.783 21.9982C143.084 21.9936 143.453 21.8997 143.899 21.744L143.734 21.272C143.298 21.4243 142.992 21.4949 142.776 21.4982C142.573 21.5013 142.478 21.4463 142.414 21.3647C142.335 21.2626 142.271 21.0775 142.234 20.7514C142.198 20.4318 142.191 20.0183 142.191 19.492H141.691ZM134.857 21.646C135.662 21.646 136.43 21.1309 137.122 19.8036L136.679 19.5724C136.028 20.8211 135.395 21.146 134.857 21.146V21.646ZM137.151 19.688V15.264H136.651V19.688H137.151ZM137.151 15.264C137.151 14.1559 137.009 12.9554 136.674 12.0224C136.346 11.1106 135.785 10.338 134.885 10.338V10.838C135.44 10.838 135.887 11.3114 136.203 12.1915C136.512 13.0506 136.651 14.1881 136.651 15.264H137.151ZM134.885 10.338C134.113 10.338 133.519 10.8564 133.131 11.8098C132.745 12.7575 132.535 14.1889 132.535 16.16H133.035C133.035 14.2111 133.244 12.8565 133.594 11.9982C133.941 11.1456 134.397 10.838 134.885 10.838V10.338ZM132.535 16.16C132.535 17.7771 132.674 19.122 133.019 20.0708C133.191 20.5469 133.422 20.9403 133.728 21.2163C134.039 21.4972 134.417 21.646 134.857 21.646V21.146C134.54 21.146 134.282 21.0428 134.063 20.8451C133.838 20.6425 133.645 20.3306 133.489 19.9002C133.175 19.036 133.035 17.7629 133.035 16.16H132.535Z" fill="#E86331" mask="url(#path-1-outside-1_4722_2969)"/>
</svg>
